<?xml version="1.0" encoding="UTF-8" standalone="no"?>
<!-- Created with Inkscape (http://www.inkscape.org/) -->

<svg
   xmlns:dc="http://purl.org/dc/elements/1.1/"
   xmlns:cc="http://creativecommons.org/ns#"
   xmlns:rdf="http://www.w3.org/1999/02/22-rdf-syntax-ns#"
   xmlns:svg="http://www.w3.org/2000/svg"
   xmlns="http://www.w3.org/2000/svg"
   xmlns:sodipodi="http://sodipodi.sourceforge.net/DTD/sodipodi-0.dtd"
   xmlns:inkscape="http://www.inkscape.org/namespaces/inkscape"
   width="395.54437mm"
   height="39.456532mm"
   viewBox="0 0 1401.5352 139.80661"
   id="svg4664"
   version="1.1"
   inkscape:version="0.91 r13725"
   sodipodi:docname="header.svg">
  <defs
     id="defs4666" />
  <sodipodi:namedview
     id="base"
     pagecolor="#ffffff"
     bordercolor="#666666"
     borderopacity="1.0"
     inkscape:pageopacity="0.0"
     inkscape:pageshadow="2"
     inkscape:zoom="0.24748737"
     inkscape:cx="1352.4388"
     inkscape:cy="-430.74483"
     inkscape:document-units="px"
     inkscape:current-layer="layer1"
     showgrid="false"
     showguides="true"
     inkscape:guide-bbox="true"
     fit-margin-top="1"
     fit-margin-left="1"
     fit-margin-right="1"
     fit-margin-bottom="1"
     inkscape:window-width="1280"
     inkscape:window-height="996"
     inkscape:window-x="1280"
     inkscape:window-y="0"
     inkscape:window-maximized="1">
    <sodipodi:guide
       position="-217.68433,131.11927"
       orientation="0,1"
       id="guide5268" />
    <sodipodi:guide
       position="-269.11291,11.119268"
       orientation="0,1"
       id="guide5270" />
  </sodipodi:namedview>
  <metadata
     id="metadata4669">
    <rdf:RDF>
      <cc:Work
         rdf:about="">
        <dc:format>image/svg+xml</dc:format>
        <dc:type
           rdf:resource="http://purl.org/dc/dcmitype/StillImage" />
        <dc:title></dc:title>
      </cc:Work>
    </rdf:RDF>
  </metadata>
  <g
     inkscape:label="Layer 1"
     inkscape:groupmode="layer"
     id="layer1"
     transform="translate(410.88711,-117.96057)">
    <g
       id="g6427"
       transform="matrix(1.1306259,0,0,1.1306259,-1051.5489,645.27481)"
       style="opacity:1;fill:#ffffff">
      <path
         inkscape:connector-curvature="0"
         style="fill:#ffffff;fill-opacity:1;fill-rule:evenodd;stroke:none;stroke-width:2.49266195;stroke-linecap:butt;stroke-linejoin:miter;stroke-miterlimit:4;stroke-dasharray:none;stroke-opacity:1"
         d="m 1268.5581,-362.5644 c -27.5139,-27.51394 -55.0278,-55.02786 -82.5418,-82.54179 12.4982,-0.98906 24.9964,-1.97812 37.4945,-2.96719 30.661,30.57102 61.3219,61.14206 91.9828,91.71309 -15.0168,-2.20619 -29.9025,-4.75644 -45.1171,-4.89513 -0.6077,-0.30135 -1.1406,-0.70415 -1.8184,-1.30898 z"
         id="path3214-8"
         sodipodi:nodetypes="cccccc" />
      <path
         inkscape:connector-curvature="0"
         style="fill:#ffffff;fill-opacity:1;fill-rule:evenodd;stroke:none;stroke-width:2.21569943;stroke-linecap:butt;stroke-linejoin:miter;stroke-miterlimit:4;stroke-dasharray:none;stroke-opacity:1"
         d="m 817.54555,-447.26414 0.26975,79.57457 60.42273,-3.23693 0.26975,-21.57954 -30.48111,0 -0.5395,-53.67913 -29.94162,-1.07897 z"
         id="path3200" />
      <path
         inkscape:connector-curvature="0"
         style="fill:#ffffff;fill-opacity:1;fill-rule:evenodd;stroke:none;stroke-width:2.21569943;stroke-linecap:butt;stroke-linejoin:miter;stroke-miterlimit:4;stroke-dasharray:none;stroke-opacity:1"
         d="m 882.82369,-444.5667 0,73.6402 33.98779,-1.61845 25.89546,-0.5395 0.26973,-18.88211 -30.4811,-0.26973 0.26974,-50.17245 -29.94162,-2.15796 z"
         id="path3202" />
      <path
         inkscape:connector-curvature="0"
         style="fill:#ffffff;fill-opacity:1;fill-rule:evenodd;stroke:none;stroke-width:2.21569943;stroke-linecap:butt;stroke-linejoin:miter;stroke-miterlimit:4;stroke-dasharray:none;stroke-opacity:1"
         d="m 948.10182,-441.32977 -0.80923,67.16635 30.75085,0.26974 0,-67.70583 -29.94162,0.26974 z"
         id="path3204" />
      <path
         inkscape:connector-curvature="0"
         style="fill:#ffffff;fill-opacity:1;fill-rule:evenodd;stroke:none;stroke-width:2.21569943;stroke-linecap:butt;stroke-linejoin:miter;stroke-miterlimit:4;stroke-dasharray:none;stroke-opacity:1"
         d="m 988.56349,-441.06002 c 9.62087,0 19.24171,0 28.86261,0 0.3023,14.94193 -0.8691,35.78892 0.6301,44.83028 1.4993,9.04135 16.3194,7.26035 18.055,0.80827 1.7356,-6.45207 1.1617,-30.28849 1.276,-46.17804 9.7108,0.17983 19.4216,0.35966 29.1324,0.53949 0,20.04333 -0.1109,32.91703 -0.1109,42.37487 0,9.45784 -1.7442,20.40262 -11.3904,24.36434 -18.7976,0.55731 -37.6427,0.42712 -56.47431,0.42712 -8.45063,-6.57361 -10.35208,-16.90141 -10.2148,-28.40661 0.13723,-11.5052 0.1827,-25.83973 0.23425,-38.75972 z"
         id="path3206"
         sodipodi:nodetypes="cczzcczcczc" />
      <path
         inkscape:connector-curvature="0"
         style="fill:#ffffff;fill-opacity:1;fill-rule:evenodd;stroke:none;stroke-width:2.21569943;stroke-linecap:butt;stroke-linejoin:miter;stroke-miterlimit:4;stroke-dasharray:none;stroke-opacity:1"
         d="m 1138.1668,-443.36876 c -5.2908,0.0585 -10.8833,0.13119 -16.2354,0.42627 -14.9657,0.40409 -29.9358,0.62513 -44.9008,1.05834 0.09,22.74841 0.1697,45.49687 0.2596,68.24528 9.7226,0 19.4451,0 29.1676,0 0.1799,-6.56325 0.3395,-13.12704 0.5193,-19.6903 5.5011,7.08433 10.9164,14.22604 16.5478,21.20834 9.5033,-0.17811 18.9996,0.38905 28.5019,0.38608 -6.204,-9.62077 -12.4044,-19.24392 -18.6084,-28.86468 8.4448,-0.11892 14.6426,-7.92037 16.1303,-15.68946 2.4279,-8.151 0.9934,-17.50019 -4.2175,-24.27091 -2.1147,-1.58827 -4.3848,-2.68639 -7.1644,-2.80896 z m -32.2715,12.30346 c 3.9779,0.0943 8.0162,-0.0626 11.1216,0.70877 2.7389,1.76105 4.6407,5.54264 5.2804,9.07843 0.2453,3.70797 -1.2348,6.82852 -4.0407,8.83009 -3.857,0.86978 -8.0881,0.61326 -12.1017,0.51043 -0.1435,-0.62501 -0.1698,-12.75187 -0.2596,-19.12772 z"
         id="path3208"
         sodipodi:nodetypes="cccccccccccccccccc" />
      <path
         inkscape:connector-curvature="0"
         style="fill:#ffffff;fill-opacity:1;fill-rule:evenodd;stroke:none;stroke-width:2.21569943;stroke-linecap:butt;stroke-linejoin:miter;stroke-miterlimit:4;stroke-dasharray:none;stroke-opacity:1"
         d="m 1157.6932,-444.02721 c -0.09,24.54673 -0.1799,49.09347 -0.2698,73.64021 18.6124,0.17982 37.2247,0.35965 55.8371,0.53948 0,-6.11421 0,-12.2284 0,-18.34261 -8.6318,0.26975 -17.2636,0.53949 -25.8955,0.80923 -0.1798,-3.59658 -0.3596,-7.19317 -0.5394,-10.78977 8.3621,0.0899 16.7241,0.17982 25.0862,0.26974 0,-7.19319 0,-14.38636 0,-21.57955 -8.2722,0.17984 -16.5443,0.35967 -24.8165,0.53949 0,-3.59658 0,-7.19318 0,-10.78977 8.9016,0.17983 17.8031,0.35965 26.7047,0.53948 0.1212,-6.04026 0.2423,-12.08052 0.3635,-18.12076 -9.9585,0.75436 -19.7163,1.52278 -29.6195,2.33501 -2.5385,0.34554 -17.761,0.70199 -26.8508,0.94982 z"
         id="path3210"
         sodipodi:nodetypes="cccccccccccccc" />
      <path
         inkscape:connector-curvature="0"
         style="fill:#ffffff;fill-opacity:1;fill-rule:evenodd;stroke:none;stroke-width:2.49266195;stroke-linecap:butt;stroke-linejoin:round;stroke-miterlimit:4;stroke-dasharray:none;stroke-opacity:1"
         d="m 1223.186,-367.43196 -40.737,-2.79152 85.8394,-82.7053 44.5078,-5.12514 -89.6102,90.62196 z"
         id="path3212"
         sodipodi:nodetypes="ccccc" />
    </g>
    <path
       style="fill:#ffffff;fill-opacity:1"
       d="m -202.94984,121.50388 c -6.70373,0.83954 -9.52852,8.32278 -11.67074,13.81055 -1.94134,4.85642 -1.40889,12.31064 4.53543,13.89833 10.62264,2.51886 20.95039,-10.10696 16.76002,-20.15741 -1.5967,-3.7678 -5.34667,-7.42385 -9.62471,-7.55147 z m -91.12003,5.056 c -20.73415,0.19569 -41.42151,9.17707 -54.79428,25.19224 -2.86497,-1.85843 -6.28635,-6.67138 -10.01517,-3.55478 -1.48184,1.16219 -0.90754,5.40751 -2.63772,1.90829 -3.4829,-2.4463 -8.23331,1.49676 -8.09625,5.38741 -0.89034,4.73208 -0.28822,9.60525 0.74151,14.26305 -11.82925,-3.73743 -26.55223,-0.56135 -33.32176,10.52363 -6.54133,9.07067 -6.8566,21.75593 -0.91706,31.19255 7.83869,13.89675 27.06584,17.23307 40.55088,10.53724 13.11631,20.86153 38.25898,30.23757 61.9109,31.78932 15.87576,1.7112 32.36596,-1.71121 45.57671,-10.87144 25.58578,-17.4232 40.56386,-46.18362 50.46706,-74.7138 1.31026,-3.89029 2.5234,-7.81569 3.53173,-11.7959 -28.3383,-16.02854 -59.79818,-30.43312 -92.99655,-29.85781 z"
       id="path628-4"
       inkscape:connector-curvature="0" />
    <text
       xml:space="preserve"
       style="font-style:normal;font-weight:normal;font-size:40px;line-height:125%;font-family:sans-serif;letter-spacing:0px;word-spacing:0px;fill:#000000;fill-opacity:1;stroke:none;stroke-width:1px;stroke-linecap:butt;stroke-linejoin:miter;stroke-opacity:1"
       x="505.07626"
       y="246.64792"
       id="text5272"
       sodipodi:linespacing="125%"><tspan
         sodipodi:role="line"
         id="tspan5274"
         x="505.07626"
         y="246.64792"></tspan></text>
    <text
       xml:space="preserve"
       style="font-style:normal;font-weight:normal;font-size:40px;line-height:125%;font-family:sans-serif;letter-spacing:0px;word-spacing:0px;fill:#000000;fill-opacity:1;stroke:none;stroke-width:1px;stroke-linecap:butt;stroke-linejoin:miter;stroke-opacity:1"
       x="423.73602"
       y="202.21863"
       id="text5280"
       sodipodi:linespacing="125%"><tspan
         sodipodi:role="line"
         id="tspan5282"
         x="423.73602"
         y="202.21863"
         style="font-style:normal;font-variant:normal;font-weight:bold;font-stretch:normal;font-size:50px;font-family:Laksaman;-inkscape-font-specification:'Laksaman Bold';fill:#ffffff">Control de Traduccions</tspan></text>
  </g>
</svg>
